<?xml version="1.0" encoding="iso-8859-1"?>
<!-- Uploaded to: SVG Repo, www.svgrepo.com, Generator: SVG Repo Mixer Tools -->
<svg fill="#000000" height="800px" width="800px" version="1.1" id="Capa_1" xmlns="http://www.w3.org/2000/svg" xmlns:xlink="http://www.w3.org/1999/xlink" 
	 viewBox="0 0 490 490" xml:space="preserve">
<g>
	<g>
		<g>
			<g>
				<path d="M257.737,91.219v35.517c21.971,0.733,36.984,6.585,47.601,12.817l-9.152,24.167
					c-7.697-4.398-22.699-12.451-46.132-12.451c-28.199,0-38.816,16.836-38.816,31.485c0,19.049,13.548,28.565,45.399,41.749
					c37.717,15.37,56.753,34.418,56.753,67.003c0,28.918-20.135,56.018-57.852,62.248v38.072h-23.066v-36.984
					c-21.234-0.353-43.205-6.952-56.02-16.103l8.785-24.533c13.182,8.785,32.218,15.75,52.73,15.75
					c25.989,0,43.571-15.017,43.571-35.885c0-20.146-14.285-32.597-41.369-43.581c-37.35-14.638-60.42-31.485-60.42-63.338
					c0-30.397,21.604-53.465,55.287-58.949V91.219H257.737 M273.049,75.906h-15.313h-22.7h-15.312v15.313v24.81
					c-33.993,10.17-55.287,36.991-55.287,71.123c0,44.152,35.459,64.001,70.144,77.594c29.186,11.838,31.646,21.346,31.646,29.324
					c0,12.497-11.092,20.572-28.259,20.572c-15.32,0-31.855-4.927-44.236-13.18l-16.303-10.866l-6.606,18.445l-8.785,24.533
					l-3.903,10.897l9.421,6.727c12.512,8.937,30.647,15.348,49.605,17.832v22.793v15.313h15.312h23.066h15.313v-15.313v-25.935
					c35.096-10.617,57.852-39.216,57.852-74.385c0-48.014-35.425-68.607-66.286-81.183c-33.365-13.81-35.866-19.883-35.866-27.569
					c0-10.127,8.785-16.172,23.503-16.172c20.277,0,32.606,7.047,38.536,10.434l15.567,8.896l6.352-16.769l9.152-24.167
					l4.576-12.086l-11.148-6.542c-12.034-7.064-25.234-11.576-40.038-13.657V91.219V75.906L273.049,75.906z"/>
			</g>
		</g>
	</g>
	<g>
		<g>
			<path d="M245,15.313c126.65,0,229.688,103.038,229.688,229.687S371.65,474.688,245,474.688S15.313,371.65,15.313,245
				S118.35,15.313,245,15.313 M245,0C109.692,0,0,109.69,0,245s109.692,245,245,245c135.311,0,245-109.69,245-245S380.311,0,245,0
				L245,0z"/>
		</g>
	</g>
</g>
</svg>