<?xml version="1.0" encoding="iso-8859-1"?>
<!-- Uploaded to: SVG Repo, www.svgrepo.com, Generator: SVG Repo Mixer Tools -->
<svg fill="#000000" version="1.1" id="Capa_1" xmlns="http://www.w3.org/2000/svg" xmlns:xlink="http://www.w3.org/1999/xlink" 
	 viewBox="0 0 490 490" xml:space="preserve">
<g>
	<polygon points="306.115,102.283 295.289,91.456 259.924,126.822 259.924,0 244.611,0 244.611,126.822 209.246,91.456 
		198.419,102.283 252.268,156.131 	"/>
	<rect x="61.25" y="362.401" width="219.085" height="15.313"/>
	<rect x="61.25" y="406.589" width="82.918" height="15.313"/>
	<path d="M451.554,169.275H38.461C17.257,169.275,0,186.516,0,207.721v243.833C0,472.759,17.257,490,38.461,490h413.093
		C472.758,490,490,472.759,490,451.554V207.721C490,186.516,472.758,169.275,451.554,169.275z M38.461,184.587h413.093
		c12.755,0,23.133,10.378,23.133,23.133v24.688H15.312v-24.688C15.312,194.965,25.69,184.587,38.461,184.587z M474.687,247.722
		v51.68H15.312v-51.68H474.687z M451.554,474.687H38.461c-12.771,0-23.148-10.378-23.148-23.133v-136.84h459.375v136.84
		C474.687,464.31,464.31,474.687,451.554,474.687z"/>
</g>
</svg>