<?xml version="1.0" encoding="iso-8859-1"?>
<!-- Uploaded to: SVG Repo, www.svgrepo.com, Generator: SVG Repo Mixer Tools -->
<svg fill="#000000" version="1.1" id="Capa_1" xmlns="http://www.w3.org/2000/svg" xmlns:xlink="http://www.w3.org/1999/xlink" 
	 viewBox="0 0 490 490" xml:space="preserve">
<g>
	<g>
		<g>
			<g>
				<g>
					<path d="M245.075,197.919c11.555,0,20.954,9.4,20.954,20.954c0,11.553-9.398,20.954-20.954,20.954
						c-11.555,0-20.954-9.4-20.954-20.954C224.121,207.319,233.519,197.919,245.075,197.919 M245.075,182.606
						c-20.03,0-36.266,16.237-36.266,36.266c0,20.029,16.236,36.266,36.266,36.266s36.266-16.237,36.266-36.266
						C281.341,198.843,265.105,182.606,245.075,182.606L245.075,182.606z"/>
				</g>
			</g>
			<g>
				<g>
					<path d="M199.287,280.448l20.146,43.672h-32.558v-26.345C186.875,287.271,193.227,282.555,199.287,280.448 M208.319,263.47
						c0,0-36.756,0.49-36.756,34.305c0,33.816,0,41.657,0,41.657s71.542,0,71.796,0L208.319,263.47L208.319,263.47z
						 M243.359,339.432L243.359,339.432L243.359,339.432L243.359,339.432z"/>
				</g>
			</g>
			<g>
				<g>
					<path d="M290.889,280.388c5.952,2.064,12.385,6.754,12.385,17.387v26.345h-32.558L290.889,280.388 M281.831,263.47
						l-35.04,75.962l0,0h71.796c0,0,0-7.841,0-41.657C318.587,263.959,281.831,263.47,281.831,263.47L281.831,263.47z"/>
				</g>
			</g>
			<g>
				<polygon points="245.075,263.47 219.836,263.47 245.075,319.339 270.314,263.47 				"/>
			</g>
		</g>
	</g>
	<g>
		<g>
			<g>
				<rect x="30.625" y="99.412" width="428.75" height="15.313"/>
			</g>
			<g>
				<g>
					<g>
						<path d="M490,390.588H0V133.984h490V390.588z M15.313,375.276h459.375V149.297H15.313V375.276z"/>
					</g>
					<g>
						<g>
							<polygon points="37.812,169.398 37.812,209.766 78.18,169.398 							"/>
						</g>
						<g>
							<polygon points="37.812,355.174 37.812,314.806 78.18,355.174 							"/>
						</g>
						<g>
							<polygon points="452.178,169.398 452.178,209.766 411.81,169.398 							"/>
						</g>
						<g>
							<polygon points="452.178,355.174 452.178,314.806 411.81,355.174 							"/>
						</g>
					</g>
				</g>
			</g>
		</g>
	</g>
</g>
</svg>