<?xml version="1.0" encoding="iso-8859-1"?>
<!-- Uploaded to: SVG Repo, www.svgrepo.com, Generator: SVG Repo Mixer Tools -->
<svg fill="#000000" height="800px" width="800px" version="1.1" id="Capa_1" xmlns="http://www.w3.org/2000/svg" xmlns:xlink="http://www.w3.org/1999/xlink" 
	 viewBox="0 0 490 490" xml:space="preserve">
<g>
	<polygon points="223.256,206.945 181.929,168.047 154.683,196.657 226.452,264.197 351.856,116.747 321.591,91.313 	"/>
	<path d="M362.397,424.157h-17.862v-53.843H145.473v53.843h-17.87c-13.335,0-24.244,10.91-24.244,24.245
		c0,13.335,10.909,24.245,24.244,24.245h234.794c13.335,0,24.244-10.91,24.244-24.245
		C386.641,435.066,375.732,424.157,362.397,424.157z M160.785,385.626h168.438v38.531H160.785V385.626z M362.397,457.333H127.603
		c-4.841,0-8.931-4.091-8.931-8.932c0-4.841,4.09-8.932,8.931-8.932h234.794c4.841,0,8.931,4.091,8.931,8.932
		C371.328,453.243,367.238,457.333,362.397,457.333z"/>
	<path d="M459.375,17.354H30.625C13.78,17.354,0,31.136,0,47.979v260.312c0,16.844,13.78,30.625,30.625,30.625h428.75
		c16.845,0,30.625-13.781,30.625-30.625V47.979C490,31.136,476.22,17.354,459.375,17.354z M474.688,308.292
		c0,8.443-6.868,15.313-15.313,15.313H30.625c-8.445,0-15.312-6.869-15.312-15.313V47.979c0-8.443,6.868-15.313,15.312-15.313
		h428.75c8.445,0,15.313,6.869,15.313,15.313V308.292z"/>
</g>
</svg>