<?xml version="1.0" encoding="iso-8859-1"?>
<!-- Uploaded to: SVG Repo, www.svgrepo.com, Generator: SVG Repo Mixer Tools -->
<svg fill="#000000" version="1.1" id="Capa_1" xmlns="http://www.w3.org/2000/svg" xmlns:xlink="http://www.w3.org/1999/xlink" 
	 viewBox="0 0 490 490" xml:space="preserve">
<g>
	<path d="M362.397,424.157h-17.866v-53.843H145.469v53.843h-17.866c-13.335,0-24.243,10.909-24.243,24.244
		c0,13.335,10.909,24.245,24.243,24.245h234.794c13.335,0,24.243-10.91,24.243-24.245
		C386.641,435.066,375.732,424.157,362.397,424.157z M160.781,385.626h168.438v38.531H160.781V385.626z M362.397,457.333H127.603
		c-4.841,0-8.931-4.091-8.931-8.932c0-4.841,4.09-8.932,8.931-8.932h234.794c4.841,0,8.931,4.091,8.931,8.932
		C371.328,453.243,367.238,457.333,362.397,457.333z"/>
	<path d="M459.375,17.354H30.625C13.78,17.354,0,31.136,0,47.979v260.313c0,16.844,13.78,30.625,30.625,30.625h428.75
		c16.845,0,30.625-13.781,30.625-30.625V47.979C490,31.136,476.22,17.354,459.375,17.354z M474.688,308.292
		c0,8.443-6.867,15.312-15.313,15.312H30.625c-8.445,0-15.313-6.869-15.313-15.312V47.979c0-8.443,6.867-15.313,15.313-15.313
		h428.75c8.445,0,15.313,6.869,15.313,15.313V308.292z"/>
	<rect x="135.824" y="191.768" width="130.171" height="15.312"/>
	<rect x="135.824" y="218.026" width="49.257" height="15.313"/>
	<path d="M367.724,77.013H122.276c-14.311,0-25.96,11.634-25.96,25.945v144.886c0,14.311,11.649,25.96,25.96,25.96h245.449
		c14.311,0,25.96-11.649,25.96-25.96V102.958C393.684,88.647,382.035,77.013,367.724,77.013z M122.276,92.326h245.449
		c5.877,0,10.647,4.77,10.647,10.632v11.574H111.629v-11.574C111.629,97.096,116.399,92.326,122.276,92.326z M378.371,129.844
		v24.494H111.629v-24.494H378.371z M367.724,258.491H122.276c-5.877,0-10.647-4.77-10.647-10.647v-78.192h266.743v78.192
		C378.371,253.72,373.601,258.491,367.724,258.491z"/>
</g>
</svg>